# xmcd
#
# Track frame offsets: 
#        150
#        10602
#        21152
#        31112
#        39900
#        49357
#        61582
#        70760
#        80705
#        90342
#        100282
#        110750
#        120012
#        130812
#        139092
#        148735
#        159860
#        170025
#        178682
#        188167
#        198750
#        208000
#        216530
#        225397
#        234220
#
# Disc length: 3240 seconds
#
# Revision: 3
# Processed by: cddbd v1.5.2PL0 Copyright (c) Steve Scherf et al.
# Submitted via: ExactAudioCopyFreeDBPlugin 1.0
#
DISCID=480ca619
DTITLE=Fats Domino - Walking to New Orleans:  The Legendary Imperial R
DTITLE=ecordings, 1949-1962 (Crescent City Soul) [Capitol box set]
DYEAR=2002
DGENRE=Rhythm and Blues
TTITLE0=Blue Monday
TTITLE1=Poor Me
TTITLE2=I Can't Go On (Rosalie)
TTITLE3=I'm in Love Again
TTITLE4=Bo Weevil
TTITLE5=Don't Blame it on Me
TTITLE6=If You Need Me
TTITLE7=So-Long
TTITLE8=My Blue Heaven
TTITLE9=Ida Jane
TTITLE10=When My Dreamboat Comes Home
TTITLE11=What's the Reason I'm Not Pleasing You
TTITLE12=Blueberry Hill
TTITLE13=Honey Chile
TTITLE14=I'm Walkin'
TTITLE15=What Will I Tell My Heart
TTITLE16=My Happiness
TTITLE17=Young School Girl
TTITLE18=The Rooster Song
TTITLE19=Telling Lies
TTITLE20=It's You I Love
TTITLE21=Valley of Tears
TTITLE22=Wait and See
TTITLE23=The Big Beat
TTITLE24=Little Mary
EXTD=
EXTT0=
EXTT1=
EXTT2=
EXTT3=
EXTT4=
EXTT5=
EXTT6=
EXTT7=
EXTT8=
EXTT9=
EXTT10=
EXTT11=
EXTT12=
EXTT13=
EXTT14=
EXTT15=
EXTT16=
EXTT17=
EXTT18=
EXTT19=
EXTT20=
EXTT21=
EXTT22=
EXTT23=
EXTT24=
PLAYORDER=
